<svg width="46" height="40" viewBox="0 0 46 40" fill="none" xmlns="http://www.w3.org/2000/svg">
<g clip-path="url(#clip0_297_173)">
<path d="M24.9723 34.3668L32.7348 19.043L37.9098 17.5215C37.3578 18.6807 36.7023 19.6588 35.9433 20.4558C35.1843 21.1804 34.3218 21.5426 33.3558 21.5426C31.1478 21.5426 29.1468 20.6007 27.3528 18.717C25.5588 16.8332 24.6618 14.4422 24.6618 11.5441C24.6618 8.50111 25.6278 5.8928 27.5598 3.71922C29.5608 1.47317 32.0448 0.350159 35.0118 0.350159C37.8408 0.350159 40.2903 1.43696 42.3603 3.61054C44.4303 5.78413 45.4653 8.42865 45.4653 11.5441C45.4653 12.8483 45.2238 14.3336 44.7408 16C44.3268 17.6664 43.4298 19.84 42.0498 22.5207L33.3558 39.2573L24.9723 34.3668ZM0.44284 34.3668L8.30884 19.043L13.4838 17.5215C12.8628 18.6807 12.1728 19.6588 11.4138 20.4558C10.6548 21.1804 9.79234 21.5426 8.82634 21.5426C6.68734 21.5426 4.72084 20.6007 2.92684 18.717C1.13284 16.8332 0.23584 14.4422 0.23584 11.5441C0.23584 8.50111 1.20184 5.8928 3.13384 3.71922C5.13484 1.47317 7.61884 0.350159 10.5858 0.350159C13.4148 0.350159 15.8643 1.43696 17.9343 3.61054C20.0043 5.78413 21.0393 8.42865 21.0393 11.5441C21.0393 12.8483 20.7978 14.3336 20.3148 16C19.8318 17.6664 18.9003 19.84 17.5203 22.5207L8.92984 39.2573L0.44284 34.3668Z" fill="#A8A9C2"/>
</g>
<defs>
<clipPath id="clip0_297_173">
<rect width="46" height="40" fill="white"/>
</clipPath>
</defs>
</svg>
