<svg width="42" height="46" viewBox="0 0 42 46" fill="none" xmlns="http://www.w3.org/2000/svg">
<path fill-rule="evenodd" clip-rule="evenodd" d="M1.91224 7.10265e-07H40.0828C40.5894 -0.000434745 41.0756 0.199375 41.4355 0.555883C41.6136 0.731045 41.7552 0.93981 41.8521 1.17009C41.9491 1.40036 41.9993 1.64758 42 1.89741V43.7949C41.9999 44.0444 41.9505 44.2914 41.8544 44.5217C41.7584 44.7519 41.6177 44.9609 41.4404 45.1364C41.0805 45.4929 40.5943 45.6928 40.0878 45.6923H1.91224C1.40808 45.6928 0.923989 45.4949 0.564529 45.1414C0.387467 44.9672 0.246472 44.7598 0.149606 44.5311C0.0527399 44.3024 0.00190236 44.0569 0 43.8085L0 1.89741C5.02561e-05 1.64793 0.0495276 1.40092 0.145575 1.17066C0.241622 0.940403 0.382335 0.731455 0.559588 0.555883C0.919465 0.199375 1.40567 -0.000434745 1.91224 7.10265e-07V7.10265e-07ZM16.0872 36.0224H19.1952V24.9233H16.9235L13.272 30.245L9.60688 24.9233H7.32776V36.0237H10.4345V30.7984L12.2578 33.411H14.2676L16.086 30.8169L16.0872 36.0224ZM7.41176 22.0389H19.2002V19.1174H10.8706V9.8033H7.41176V22.0389ZM31.5 36.0224H34.6117V24.9233H32.3276L28.6798 30.245L25.0147 24.9233H22.7405V36.0237H25.8485V30.7984L27.6706 33.411H29.6804L31.4988 30.8169L31.5 36.0224ZM32.7835 20.3527C33.3821 19.8087 33.858 19.1433 34.1794 18.401C34.5099 17.5993 34.6714 16.738 34.6537 15.8711C34.667 14.9982 34.4987 14.132 34.1596 13.3276C33.8381 12.5853 33.3623 11.9199 32.7637 11.3758C32.1364 10.8215 31.4048 10.3978 30.6118 10.1294C29.7448 9.83313 28.8339 9.68529 27.9176 9.69212H22.6701V22.0377H27.9695C28.8791 22.0458 29.7835 21.8992 30.6439 21.6041C31.4315 21.3327 32.1575 20.9078 32.7798 20.354L32.7835 20.3527ZM27.9176 12.6321C28.5025 12.6139 29.0832 12.7359 29.6112 12.9879C30.0798 13.2196 30.4639 13.5924 30.7094 14.054C30.9885 14.6067 31.1215 15.2216 31.0961 15.8402C31.1163 16.4643 30.9835 17.0839 30.7094 17.645C30.4715 18.1188 30.0861 18.5024 29.6112 18.7382C29.0822 18.9874 28.5022 19.1092 27.9176 19.094H26.1685V12.6321H27.9176Z" fill="white"/>
</svg>
